<svg xmlns="http://www.w3.org/2000/svg" viewBox="0 0 60.72 67.45"><defs><style>.cls-1,.cls-2,.cls-3{stroke:#814efa;}.cls-1,.cls-2{stroke-miterlimit:10;}.cls-2,.cls-3{fill:none;stroke-width:2.52px;}.cls-3{stroke-linecap:round;stroke-linejoin:round;}</style></defs><title>Asset 8</title><g id="Layer_2" data-name="Layer 2"><g id="Layer_1-2" data-name="Layer 1"><path class="cls-1" d="M30.36,10.76A1.37,1.37,0,0,1,29,9.36,1.41,1.41,0,0,1,30.26,8a1.51,1.51,0,0,1,1.5,1.3A1.52,1.52,0,0,1,30.36,10.76Z"/><circle class="cls-2" cx="30.36" cy="30.36" r="29.1"/><circle class="cls-2" cx="30.36" cy="30.36" r="15.6"/><circle class="cls-2" cx="30.36" cy="30.36" r="7.9"/><path class="cls-3" d="M30.36,26.36a4,4,0,0,0-4,4"/><path class="cls-2" d="M46.66,54.56l4.9,8.5a1.34,1.34,0,0,1-.9,2c-6.9,1.5-33.7,1.5-40.6,0a1.34,1.34,0,0,1-.9-2l5.5-8.5"/></g></g></svg>